<?xml version="1.0" encoding="utf-8"?>
<!-- Generator: Adobe Illustrator 17.0.0, SVG Export Plug-In . SVG Version: 6.00 Build 0)  -->
<!DOCTYPE svg PUBLIC "-//W3C//DTD SVG 1.1//EN" "http://www.w3.org/Graphics/SVG/1.1/DTD/svg11.dtd">
<svg version="1.1" id="Layer_1" xmlns="http://www.w3.org/2000/svg" xmlns:xlink="http://www.w3.org/1999/xlink" x="0px" y="0px"
	 width="27.637px" height="22.063px" viewBox="0 0 27.637 22.063" enable-background="new 0 0 27.637 22.063" xml:space="preserve">
<path fill="#F74854" d="M23.937,0H3.701C1.66,0,0,1.674,0,3.732V18.33c0,2.058,1.66,3.732,3.701,3.732h20.236
	c2.041,0,3.7-1.674,3.7-3.732V3.732C27.637,1.674,25.978,0,23.937,0z M23.353,1.653l-9.535,9.592l-0.092-0.081L4.284,1.653H23.353z
	 M25.998,18.33c0,1.146-0.925,2.079-2.061,2.079H3.701c-1.137,0-2.062-0.933-2.062-2.079V3.732c0-0.576,0.233-1.114,0.655-1.513
	l0.092-0.087l0.095,0.083l11.337,11.016L25.251,2.132l0.092,0.087c0.422,0.399,0.655,0.936,0.655,1.513V18.33z"/>
<g id="L_2_">
</g>
</svg>
