<?xml version="1.0" encoding="utf-8"?>
<!-- Generator: Adobe Illustrator 17.0.0, SVG Export Plug-In . SVG Version: 6.00 Build 0)  -->
<!DOCTYPE svg PUBLIC "-//W3C//DTD SVG 1.1//EN" "http://www.w3.org/Graphics/SVG/1.1/DTD/svg11.dtd">
<svg version="1.1" id="Layer_1" xmlns="http://www.w3.org/2000/svg" xmlns:xlink="http://www.w3.org/1999/xlink" x="0px" y="0px"
	 width="69.947px" height="70px" viewBox="0 0 69.947 70" enable-background="new 0 0 69.947 70" xml:space="preserve">
<path fill="#FFFFFF" d="M-276.227,335.437h-3.552v-0.843c0-2.696-2.201-4.89-4.905-4.89h-4.362c-2.705,0-4.905,2.194-4.905,4.89
	v0.843h-3.552c-2.705,0-4.906,2.194-4.906,4.89v13.291c0,2.696,2.201,4.89,4.906,4.89h21.278c2.705,0,4.905-2.194,4.905-4.89
	v-13.291C-271.321,337.631-273.522,335.437-276.227,335.437z M-292.261,334.594c0-1.767,1.442-3.204,3.214-3.204h4.362
	c1.772,0,3.214,1.437,3.214,3.204v0.843h-10.79V334.594z M-273.013,353.618c0,1.766-1.442,3.204-3.214,3.204h-21.278
	c-1.772,0-3.214-1.437-3.214-3.204v-9.274h6.766h1.692h3.873v1.281c0,0.52,0.423,0.941,0.944,0.941h1.157
	c0.521,0,0.944-0.421,0.944-0.941v-1.281h3.873h1.691h6.766V353.618z M-273.013,342.658h-6.766h-1.691h-3.873v-0.408
	c0-0.52-0.423-0.941-0.944-0.941h-1.157c-0.521,0-0.944,0.421-0.944,0.941v0.408h-3.873h-1.692h-6.766v-2.331
	c0-1.767,1.442-3.204,3.214-3.204h3.552h1.692h10.79h1.691h3.552c1.772,0,3.214,1.437,3.214,3.204V342.658z"/>
<g>
	<g>
		<path fill="#F74854" d="M-256.1,408.938c-8.393,0-15.221,6.953-15.221,15.5c0,8.547,6.828,15.5,15.221,15.5
			c8.393,0,15.221-6.953,15.221-15.5C-240.879,415.892-247.708,408.938-256.1,408.938z M-269.414,428.112
			c-0.312-1.171-0.479-2.403-0.479-3.674c0-1.271,0.167-2.502,0.479-3.674c0.312-1.171,0.769-2.283,1.351-3.312
			c-0.582,1.029-1.039,2.141-1.351,3.312c-0.312,1.171-0.479,2.403-0.479,3.674C-269.893,425.709-269.726,426.941-269.414,428.112
			c0.312,1.171,0.77,2.282,1.351,3.312C-268.645,430.395-269.102,429.283-269.414,428.112z M-256.1,438.267
			c-7.488,0-13.579-6.203-13.579-13.828s6.092-13.829,13.579-13.829c7.488,0,13.58,6.203,13.58,13.829
			S-248.612,438.267-256.1,438.267z M-259.857,421.698c0.692,0,1.256-0.573,1.256-1.278c0-0.705-0.564-1.278-1.256-1.278
			c-0.692,0-1.256,0.573-1.256,1.278C-261.113,421.125-260.55,421.698-259.857,421.698z M-252.344,421.698
			c0.692,0,1.256-0.573,1.256-1.278c0-0.705-0.563-1.278-1.256-1.278c-0.692,0-1.255,0.573-1.255,1.278
			C-253.599,421.125-253.035,421.698-252.344,421.698z M-248.98,426.066l-0.062-0.025c-0.308-0.122-0.672,0.005-0.846,0.283
			l-0.014,0.032c-0.394,1.246-1.137,2.339-2.149,3.159c-1.026,0.832-2.259,1.323-3.562,1.42l-0.012,0.001
			c-0.076,0.005-0.151,0.01-0.227,0.013l-0.256,0.005l-0.239-0.005c-0.076-0.003-0.151-0.008-0.237-0.013
			c-1.305-0.097-2.538-0.588-3.564-1.421c-1.013-0.82-1.755-1.912-2.149-3.159l-0.015-0.032c-0.173-0.279-0.537-0.407-0.846-0.283
			l-0.062,0.025c-0.359,0.143-0.537,0.557-0.397,0.923l0.238,0.622c0.06,0.136,0.115,0.256,0.169,0.366
			c0.318,0.641,0.721,1.24,1.196,1.778c1.417,1.605,3.356,2.556,5.46,2.679l0.05,0.003c0.054,0.003,0.109,0.005,0.164,0.007
			c0.059,0.002,0.117,0.003,0.2,0.003l0.039,0.001l0.063-0.001c0.059,0,0.117-0.001,0.176-0.003
			c0.055-0.002,0.109-0.004,0.164-0.007l0.049-0.003c2.104-0.123,4.043-1.074,5.461-2.679c0.475-0.539,0.878-1.137,1.196-1.778
			c0.053-0.108,0.109-0.228,0.171-0.372l0.237-0.617C-248.443,426.623-248.621,426.21-248.98,426.066z"/>
	</g>
</g>
<path fill="#FFFFFF" d="M-267.365,474.132h-20.236c-2.04,0-3.701,1.674-3.701,3.732v14.598c0,2.058,1.66,3.732,3.701,3.732h20.236
	c2.041,0,3.7-1.674,3.7-3.732v-14.598C-263.665,475.807-265.325,474.132-267.365,474.132z M-267.95,475.786l-9.535,9.592
	l-0.092-0.081l-9.442-9.511H-267.95z M-265.304,492.463c0,1.146-0.925,2.079-2.061,2.079h-20.236c-1.137,0-2.062-0.933-2.062-2.079
	v-14.598c0-0.576,0.233-1.114,0.655-1.513l0.092-0.087l0.095,0.083l11.337,11.016l11.433-11.099l0.092,0.087
	c0.422,0.399,0.655,0.937,0.655,1.513V492.463z"/>
<g>
	<g>
		<path fill-rule="evenodd" clip-rule="evenodd" fill="#F74854" d="M-328.222,410.601c-8.547,0-15.5,6.953-15.5,15.5
			c0,8.547,6.953,15.5,15.5,15.5c8.547,0,15.5-6.953,15.5-15.5C-312.722,417.554-319.675,410.601-328.222,410.601z
			 M-319.556,415.055c0.929,0.73,1.764,1.575,2.483,2.513C-317.792,416.63-318.627,415.786-319.556,415.055
			c-0.619-0.487-1.28-0.923-1.977-1.302C-320.836,414.132-320.175,414.568-319.556,415.055z M-314.393,426.101
			c0,7.625-6.203,13.828-13.829,13.828c-7.625,0-13.828-6.203-13.828-13.828c0-7.625,6.203-13.829,13.828-13.829
			C-320.597,412.273-314.393,418.476-314.393,426.101z M-328.222,410.818L-328.222,410.818c-1.58,0-3.105,0.241-4.54,0.688
			C-331.327,411.059-329.802,410.818-328.222,410.818z M-342.267,426.101c0-6.807,4.867-12.498,11.304-13.777
			C-337.4,413.603-342.267,419.294-342.267,426.101c0,5.082,2.713,9.543,6.768,12.009
			C-339.554,435.644-342.267,431.183-342.267,426.101z M-328.222,441.384c-1.58,0-3.105-0.241-4.54-0.688
			C-331.327,441.143-329.802,441.384-328.222,441.384L-328.222,441.384z M-320.068,439.023c4.281-2.711,7.129-7.49,7.129-12.922
			c0-5.432-2.848-10.211-7.129-12.922c4.281,2.711,7.129,7.49,7.129,12.922C-312.939,431.533-315.787,436.311-320.068,439.023z
			 M-332.048,423.361c0.705,0,1.279-0.573,1.279-1.278c0-0.705-0.574-1.278-1.279-1.278c-0.705,0-1.279,0.573-1.279,1.278
			C-333.327,422.787-332.753,423.361-332.048,423.361z M-324.396,423.361c0.705,0,1.279-0.573,1.279-1.278
			c0-0.705-0.574-1.278-1.279-1.278c-0.704,0-1.278,0.573-1.278,1.278C-325.674,422.787-325.101,423.361-324.396,423.361z
			 M-323.035,430.79h-10.373c-0.122,0-0.221,0.099-0.221,0.221v1c0,0.122,0.099,0.221,0.221,0.221h10.373
			c0.122,0,0.221-0.099,0.221-0.221v-1C-322.814,430.889-322.913,430.79-323.035,430.79z"/>
	</g>
</g>
<g id="L_2_">
</g>
<g>
	<g>
		<ellipse fill-rule="evenodd" clip-rule="evenodd" fill="#00ACED" cx="-243.527" cy="295.334" rx="34.973" ry="35"/>
	</g>
</g>
<path fill="#FFFFFF" d="M-226.216,283.931c-1.314,0.636-2.711,1.047-4.192,1.237c1.509-0.972,2.667-2.504,3.215-4.339
	c-1.411,0.896-2.973,1.536-4.637,1.91c-1.325-1.533-3.226-2.49-5.316-2.49c-4.025,0-7.287,3.513-7.287,7.857
	c0,0.61,0.063,1.213,0.184,1.781c-6.045-0.312-11.422-3.452-15.019-8.195c-0.624,1.157-0.982,2.504-0.982,3.948
	c0,2.719,1.284,5.138,3.243,6.526c-1.197-0.049-2.321-0.383-3.302-0.977c0,0.033,0,0.073,0,0.107c0,3.799,2.512,6.969,5.845,7.702
	c-0.61,0.178-1.256,0.26-1.925,0.26c-0.468,0-0.913-0.033-1.363-0.14c0.924,3.132,3.617,5.407,6.805,5.454
	c-2.494,2.117-5.636,3.361-9.05,3.361c-0.59,0-1.172-0.035-1.74-0.109c3.224,2.239,7.047,3.543,11.171,3.543
	c13.402,0,20.736-11.973,20.736-22.352c0-0.332-0.008-0.668-0.024-1.005C-228.431,286.889-227.193,285.503-226.216,283.931z"/>
<g>
	<g>
		<ellipse fill-rule="evenodd" clip-rule="evenodd" fill="#3B5998" cx="-153.5" cy="295.334" rx="34.973" ry="35"/>
	</g>
</g>
<path fill="#FFFFFF" d="M-150.85,289.07v-3.69c0-1.386,0.923-1.709,1.574-1.709c0.649,0,3.994,0,3.994,0v-6.092l-5.501-0.021
	c-6.107,0-7.497,4.544-7.497,7.452v4.061h-3.531v6.278h3.531c0,8.057,0,17.765,0,17.765h7.43c0,0,0-9.804,0-17.765h5.012
	l0.648-6.278H-150.85z"/>
<g>
	<g>
		<g>
			<ellipse fill-rule="evenodd" clip-rule="evenodd" fill="#DD4B39" cx="34.973" cy="35" rx="34.973" ry="35"/>
		</g>
	</g>
	<g>
		<g>
			<path fill="#FFFFFF" d="M36.053,37.607c-0.967-0.683-2.816-2.343-2.816-3.32c0-1.146,0.328-1.708,2.054-3.054
				c1.77-1.38,3.023-3.32,3.023-5.575c0-2.686-1.199-5.302-3.45-6.167h3.393l2.395-1.726H29.949c-4.797,0-9.314,3.626-9.314,7.825
				c0,4.292,3.272,7.757,8.153,7.757c0.34,0,0.669-0.007,0.992-0.03c-0.316,0.604-0.545,1.286-0.545,1.992
				c0,1.194,0.644,2.162,1.457,2.951c-0.615,0-1.21,0.018-1.854,0.018c-5.945,0-10.52,3.774-10.52,7.69
				c0,3.856,5.016,6.267,10.958,6.267c6.776,0,10.52-3.834,10.52-7.69C39.797,41.452,38.882,39.601,36.053,37.607z M30.336,32.258
				c-2.756-0.082-5.379-3.077-5.854-6.688c-0.476-3.612,1.374-6.376,4.131-6.295c2.757,0.083,5.379,2.98,5.854,6.592
				C34.942,29.479,33.094,32.341,30.336,32.258z M29.257,50.53c-4.11,0-7.077-2.593-7.077-5.709c0-3.054,3.681-5.596,7.79-5.552
				c0.959,0.011,1.852,0.164,2.663,0.426c2.229,1.548,3.829,2.421,4.281,4.184c0.085,0.358,0.132,0.724,0.132,1.1
				C37.046,48.097,35.034,50.53,29.257,50.53z M47.46,32.572v-4.155h-3.354v4.155H39.94v3.345h4.166v4.156h3.354v-4.156h4.168
				v-3.345H47.46z"/>
		</g>
	</g>
</g>
</svg>
