<?xml version="1.0" encoding="utf-8"?>
<!-- Generator: Adobe Illustrator 17.0.0, SVG Export Plug-In . SVG Version: 6.00 Build 0)  -->
<!DOCTYPE svg PUBLIC "-//W3C//DTD SVG 1.1//EN" "http://www.w3.org/Graphics/SVG/1.1/DTD/svg11.dtd">
<svg version="1.1" id="Layer_1" xmlns="http://www.w3.org/2000/svg" xmlns:xlink="http://www.w3.org/1999/xlink" x="0px" y="0px"
	 width="31.089px" height="28.803px" viewBox="0 0 31.089 28.803" enable-background="new 0 0 31.089 28.803" xml:space="preserve">
<path fill="#FFD84E" d="M26.183,5.733h-3.552V4.89c0-2.696-2.201-4.89-4.906-4.89h-4.362c-2.705,0-4.905,2.194-4.905,4.89v0.843
	H4.906C2.201,5.733,0,7.927,0,10.623v13.291c0,2.696,2.201,4.89,4.906,4.89h21.278c2.705,0,4.905-2.194,4.905-4.89V10.623
	C31.089,7.927,28.888,5.733,26.183,5.733z M10.149,4.89c0-1.767,1.442-3.204,3.214-3.204h4.362c1.772,0,3.214,1.437,3.214,3.204
	v0.843h-10.79V4.89z M29.397,23.914c0,1.767-1.442,3.204-3.214,3.204H4.906c-1.772,0-3.214-1.437-3.214-3.204V14.64h6.766h1.692
	h3.873v1.281c0,0.52,0.423,0.941,0.944,0.941h1.157c0.521,0,0.944-0.421,0.944-0.941V14.64h3.873h1.691h6.766V23.914z
	 M29.397,12.954h-6.766H20.94h-3.873v-0.408c0-0.52-0.423-0.941-0.944-0.941h-1.157c-0.522,0-0.944,0.421-0.944,0.941v0.408h-3.873
	H8.458H1.692v-2.331c0-1.766,1.442-3.204,3.214-3.204h3.552h1.692h10.79h1.691h3.552c1.772,0,3.214,1.437,3.214,3.204V12.954z"/>
<g>
	<g>
		<path fill="#F74854" d="M-76.818,26.372c-8.393,0-15.221,6.953-15.221,15.5c0,8.547,6.828,15.5,15.221,15.5
			c8.393,0,15.221-6.953,15.221-15.5C-61.597,33.325-68.425,26.372-76.818,26.372z M-90.132,45.545
			c-0.312-1.171-0.479-2.403-0.479-3.674c0-1.271,0.167-2.502,0.479-3.674c0.312-1.171,0.769-2.283,1.351-3.312
			c-0.582,1.029-1.039,2.141-1.351,3.312c-0.312,1.171-0.479,2.403-0.479,3.674C-90.61,43.142-90.444,44.374-90.132,45.545
			c0.312,1.171,0.77,2.282,1.351,3.312C-89.362,47.828-89.82,46.717-90.132,45.545z M-76.818,55.7
			c-7.488,0-13.579-6.203-13.579-13.828s6.092-13.829,13.579-13.829c7.488,0,13.58,6.203,13.58,13.829S-69.33,55.7-76.818,55.7z
			 M-80.575,39.131c0.692,0,1.256-0.573,1.256-1.278c0-0.705-0.564-1.278-1.256-1.278c-0.692,0-1.256,0.573-1.256,1.278
			C-81.831,38.558-81.268,39.131-80.575,39.131z M-73.061,39.131c0.692,0,1.256-0.573,1.256-1.278c0-0.705-0.563-1.278-1.256-1.278
			c-0.692,0-1.255,0.573-1.255,1.278C-74.316,38.558-73.753,39.131-73.061,39.131z M-69.698,43.5l-0.062-0.025
			c-0.308-0.122-0.672,0.005-0.846,0.283l-0.014,0.032c-0.394,1.246-1.137,2.339-2.149,3.159c-1.026,0.832-2.259,1.323-3.562,1.42
			l-0.012,0.001c-0.076,0.005-0.151,0.01-0.227,0.013l-0.256,0.005l-0.239-0.005c-0.076-0.003-0.151-0.008-0.237-0.013
			c-1.305-0.097-2.538-0.588-3.564-1.421c-1.013-0.82-1.755-1.912-2.149-3.159l-0.015-0.032c-0.173-0.279-0.537-0.407-0.846-0.283
			l-0.062,0.025c-0.359,0.143-0.537,0.557-0.397,0.923l0.238,0.622c0.06,0.136,0.115,0.256,0.169,0.366
			c0.318,0.641,0.721,1.24,1.196,1.778c1.417,1.605,3.356,2.556,5.46,2.679l0.05,0.003c0.054,0.003,0.109,0.005,0.164,0.007
			c0.059,0.002,0.117,0.003,0.2,0.003l0.039,0.001l0.063-0.001c0.059,0,0.117-0.001,0.176-0.003
			c0.055-0.002,0.109-0.004,0.164-0.007l0.049-0.003c2.104-0.123,4.043-1.074,5.461-2.679c0.475-0.539,0.878-1.137,1.196-1.778
			c0.053-0.108,0.109-0.228,0.171-0.372l0.237-0.617C-69.161,44.057-69.339,43.643-69.698,43.5z"/>
	</g>
</g>
<path fill="#FFFFFF" d="M-88.083,91.566h-20.236c-2.04,0-3.701,1.674-3.701,3.732v14.598c0,2.058,1.66,3.732,3.701,3.732h20.236
	c2.041,0,3.7-1.674,3.7-3.732V95.298C-84.383,93.24-86.043,91.566-88.083,91.566z M-88.667,93.219l-9.535,9.592l-0.092-0.081
	l-9.442-9.511H-88.667z M-86.022,109.896c0,1.146-0.925,2.079-2.061,2.079h-20.236c-1.137,0-2.062-0.933-2.062-2.079V95.298
	c0-0.576,0.233-1.114,0.655-1.513l0.092-0.087l0.095,0.083l11.337,11.016l11.433-11.099l0.092,0.087
	c0.422,0.399,0.655,0.937,0.655,1.513V109.896z"/>
<g>
	<g>
		<path fill-rule="evenodd" clip-rule="evenodd" fill="#F74854" d="M-148.94,28.034c-8.547,0-15.5,6.953-15.5,15.5
			c0,8.547,6.953,15.5,15.5,15.5c8.547,0,15.5-6.953,15.5-15.5C-133.44,34.988-140.393,28.034-148.94,28.034z M-140.274,32.489
			c0.929,0.73,1.764,1.575,2.483,2.513C-138.51,34.064-139.345,33.219-140.274,32.489c-0.619-0.487-1.28-0.923-1.977-1.302
			C-141.554,31.566-140.893,32.002-140.274,32.489z M-135.111,43.534c0,7.625-6.203,13.828-13.829,13.828
			c-7.625,0-13.828-6.203-13.828-13.828c0-7.625,6.203-13.829,13.828-13.829C-141.315,29.706-135.111,35.909-135.111,43.534z
			 M-148.94,28.251L-148.94,28.251c-1.58,0-3.105,0.241-4.54,0.688C-152.045,28.492-150.52,28.251-148.94,28.251z M-162.985,43.534
			c0-6.807,4.867-12.498,11.304-13.777C-158.118,31.036-162.984,36.728-162.985,43.534c0,5.082,2.713,9.543,6.768,12.009
			C-160.271,53.077-162.985,48.617-162.985,43.534z M-148.94,58.818c-1.58,0-3.105-0.241-4.54-0.688
			C-152.045,58.576-150.52,58.818-148.94,58.818L-148.94,58.818z M-140.786,56.456c4.281-2.711,7.129-7.49,7.129-12.922
			c0-5.432-2.848-10.211-7.129-12.922c4.281,2.711,7.129,7.49,7.129,12.922C-133.656,48.966-136.505,53.745-140.786,56.456z
			 M-152.766,40.794c0.705,0,1.279-0.573,1.279-1.278c0-0.705-0.574-1.278-1.279-1.278c-0.705,0-1.279,0.573-1.279,1.278
			C-154.044,40.221-153.471,40.794-152.766,40.794z M-145.114,40.794c0.705,0,1.279-0.573,1.279-1.278
			c0-0.705-0.574-1.278-1.279-1.278c-0.704,0-1.278,0.573-1.278,1.278C-146.392,40.221-145.818,40.794-145.114,40.794z
			 M-143.753,48.223h-10.373c-0.122,0-0.221,0.099-0.221,0.221v1c0,0.122,0.099,0.221,0.221,0.221h10.373
			c0.122,0,0.221-0.099,0.221-0.221v-1C-143.532,48.322-143.631,48.223-143.753,48.223z"/>
	</g>
</g>
<g id="L_2_">
</g>
</svg>
