<?xml version="1.0" encoding="utf-8"?>
<!-- Generator: Adobe Illustrator 17.0.0, SVG Export Plug-In . SVG Version: 6.00 Build 0)  -->
<!DOCTYPE svg PUBLIC "-//W3C//DTD SVG 1.1//EN" "http://www.w3.org/Graphics/SVG/1.1/DTD/svg11.dtd">
<svg version="1.1" id="Layer_1" xmlns="http://www.w3.org/2000/svg" xmlns:xlink="http://www.w3.org/1999/xlink" x="0px" y="0px"
	 width="234px" height="234px" viewBox="0 0 234 234" enable-background="new 0 0 234 234" xml:space="preserve">
<path fill-rule="evenodd" clip-rule="evenodd" fill="#FFD84E" d="M117,0c64.617,0,117,52.383,117,117s-52.383,117-117,117
	C52.383,234,0,181.617,0,117S52.383,0,117,0z"/>
<g id="icons">
	<path fill="#FFFFFF" d="M166.116,78.62c-1.363-1.122-2.905-1.964-4.582-2.501c-1.366-0.437-2.786-0.659-4.223-0.659
		c-0.29,0-0.577,0.012-0.863,0.03l-1.922-7.295l-1.307-0.566c-1.96-4.715-4.85-9.049-8.5-12.699
		c-7.403-7.403-17.246-11.48-27.715-11.48s-20.313,4.077-27.716,11.48c-3.679,3.679-6.586,8.053-8.547,12.81l-2.386,0.378
		l-0.222,7.422c-0.476-0.051-0.958-0.08-1.444-0.08c-1.456,0-2.897,0.229-4.283,0.68c-1.681,0.547-3.223,1.4-4.584,2.534
		c-3.18,2.651-5.005,6.535-5.005,10.659c0,5.319,2.973,10.089,7.759,12.449c1.55,0.764,3.211,1.225,4.94,1.37
		c0.615,1.363,1.309,2.717,2.065,4.025c1.987,3.437,4.43,6.614,7.26,9.444c8.582,8.583,19.993,13.309,32.131,13.309
		s23.549-4.727,32.131-13.309c2.832-2.832,5.275-6.011,7.261-9.448c0.756-1.308,1.449-2.658,2.061-4.016
		c1.725-0.138,3.382-0.588,4.928-1.339c4.757-2.311,7.83-7.212,7.83-12.485C171.184,85.176,169.337,81.272,166.116,78.62z"/>
	<path fill="#383838" d="M88.684,132.252c0,1.34-1.086,2.426-2.426,2.426h-0.077c-1.34,0-2.426-1.086-2.426-2.426v-10.961
		c0-1.34,1.086-2.426,2.426-2.426h0.077c1.34,0,2.426,1.086,2.426,2.426V132.252z"/>
	<path fill="#383838" d="M150.087,132.252c0,1.34-1.086,2.426-2.426,2.426h-0.077c-1.34,0-2.426-1.086-2.426-2.426v-10.961
		c0-1.34,1.086-2.426,2.426-2.426h0.077c1.34,0,2.426,1.086,2.426,2.426V132.252z"/>
	<g>
		<path fill="none" d="M129.424,69.785c2.041,0,3.696,1.655,3.696,3.696s-1.655,3.696-3.696,3.696c-2.041,0-3.696-1.655-3.696-3.696
			S127.383,69.785,129.424,69.785z M104.576,69.785c2.041,0,3.696,1.655,3.696,3.696s-1.655,3.696-3.696,3.696
			s-3.696-1.655-3.696-3.696S102.534,69.785,104.576,69.785z"/>
		<g>
			<path fill="#383838" d="M115.371,111.477c-0.186-0.006-0.371-0.013-0.556-0.023C115,111.463,115.185,111.471,115.371,111.477z"/>
			<path fill="#383838" d="M116.15,111.491c0.01,0,0.02,0,0.03,0c-0.072,0-0.143-0.002-0.215-0.003
				C116.027,111.488,116.088,111.491,116.15,111.491z"/>
			<path fill="#383838" d="M116.989,111.477c-0.197,0.006-0.395,0.009-0.594,0.011C116.594,111.486,116.792,111.483,116.989,111.477
				z"/>
			<path fill="#383838" d="M117.714,111.445c-0.056,0.003-0.113,0.006-0.169,0.009C117.601,111.451,117.658,111.448,117.714,111.445
				z"/>
			<path fill="#383838" d="M116.21,111.491c0.062,0,0.124-0.003,0.186-0.003c-0.072,0.001-0.143,0.003-0.215,0.003
				C116.19,111.49,116.2,111.491,116.21,111.491z"/>
			<path fill="#383838" d="M115.965,111.487c-0.198-0.001-0.396-0.005-0.594-0.011C115.568,111.483,115.766,111.486,115.965,111.487
				z"/>
			<path fill="#383838" d="M117.545,111.454c-0.185,0.009-0.37,0.017-0.556,0.023C117.175,111.471,117.36,111.463,117.545,111.454z"
				/>
			<path fill="#383838" d="M114.815,111.454c-0.056-0.003-0.113-0.006-0.169-0.009C114.702,111.448,114.759,111.451,114.815,111.454
				z"/>
		</g>
		<g>
			<circle fill="#383838" cx="104.576" cy="73.481" r="3.696"/>
			<circle fill="#383838" cx="129.424" cy="73.481" r="3.696"/>
		</g>
		<path fill="#FF1D25" d="M143.915,86.829c0.007-0.068,0.012-0.136,0.012-0.205v-0.023c-0.015,0.076-0.031,0.152-0.046,0.229
			H143.915z"/>
		<path fill="#383838" d="M143.865,86.901c-0.01,0.116-0.024,0.23-0.036,0.346c0.043-0.134,0.071-0.274,0.085-0.418h-0.035
			C143.875,86.853,143.869,86.877,143.865,86.901z"/>
		<path fill="#383838" d="M165.052,73.333c-1.447-0.703-3.003-1.215-4.635-1.504c-0.434-0.077-0.874-0.135-1.318-0.178l-0.047-0.177
			c-1.944-7.366-5.849-14.138-11.295-19.583c-8.215-8.215-19.136-12.739-30.754-12.739S94.464,43.676,86.25,51.89
			c-5.446,5.446-9.352,12.218-11.296,19.583l-0.047,0.177c-0.467,0.045-0.929,0.107-1.384,0.19
			c-1.635,0.295-3.192,0.815-4.639,1.525c-5.899,2.895-9.97,8.964-9.97,15.966c0,8.494,5.99,15.614,13.967,17.362
			c2.338,4.631,5.426,8.91,9.2,12.685c9.319,9.32,21.71,14.452,34.89,14.452c13.18,0,25.57-5.132,34.89-14.452
			c3.771-3.771,6.856-8.045,9.193-12.671c8.009-1.724,14.03-8.86,14.03-17.376C175.085,82.304,170.985,76.216,165.052,73.333z
			 M163.264,101.632c-1.523,0.74-3.204,1.202-4.976,1.328c-0.628,1.403-1.33,2.774-2.102,4.109
			c-1.963,3.396-4.381,6.558-7.229,9.405c-8.544,8.544-19.903,13.249-31.985,13.249s-23.442-4.705-31.986-13.249
			c-2.847-2.847-5.265-6.008-7.227-9.402c-0.773-1.338-1.477-2.711-2.106-4.117c-1.778-0.134-3.462-0.607-4.987-1.359
			c-4.524-2.23-7.645-6.889-7.645-12.265c0-4.216,1.92-7.992,4.931-10.501c1.319-1.099,2.848-1.953,4.516-2.497
			c1.33-0.433,2.747-0.67,4.22-0.67c6.535,0,12.01,4.612,13.351,10.75c0.028,0.167,0.093,0.415,0.093,0.415
			c0.103,1.038,0.978,1.848,2.043,1.848c1.065,0,1.94-0.811,2.043-1.848c0.007-0.068,0.01-0.136,0.01-0.205v-0.165
			c-0.034-0.207-0.07-0.413-0.111-0.618c-0.555-2.778-1.76-5.325-3.448-7.474c-0.177-0.225-0.36-0.445-0.548-0.662
			c-2.65-3.057-6.323-5.204-10.481-5.902l0.01-0.036c1.805-6.233,5.213-11.981,9.854-16.623c7.345-7.345,17.11-11.39,27.498-11.39
			c10.387,0,20.153,4.045,27.498,11.39c4.639,4.639,8.046,10.384,9.852,16.614l0.012,0.043c-4.136,0.693-7.792,2.819-10.439,5.849
			c-0.22,0.252-0.433,0.51-0.639,0.774c-1.735,2.225-2.95,4.873-3.468,7.76v0.44c0,0.069,0.004,0.138,0.01,0.205
			c0.103,1.038,0.978,1.848,2.043,1.848c0.917,0,1.693-0.601,1.957-1.43c0.012-0.115,0.025-0.23,0.036-0.346
			c0.004-0.024,0.01-0.048,0.015-0.072c0.015-0.076,0.031-0.152,0.046-0.229c1.27-6.231,6.785-10.936,13.385-10.936
			c1.45,0,2.847,0.229,4.16,0.65c1.665,0.534,3.194,1.377,4.514,2.464c3.047,2.509,4.993,6.308,4.993,10.553
			C170.978,94.735,167.826,99.415,163.264,101.632z"/>
		<path fill="#383838" d="M140.517,91.887l-0.206-0.081c-0.975-0.382-2.15,0.011-2.704,0.892l-0.04,0.086
			c-2.667,8.296-10.287,14.293-18.994,14.926c-0.25,0.018-0.5,0.033-0.753,0.042l-0.849,0.017l-0.793-0.017
			c-0.252-0.009-0.502-0.025-0.787-0.044c-8.672-0.631-16.292-6.628-18.959-14.924l-0.04-0.086
			c-0.554-0.881-1.728-1.273-2.704-0.892l-0.206,0.081c-1.149,0.449-1.718,1.749-1.27,2.899l0.789,2.018
			c0.177,0.399,0.36,0.796,0.557,1.184c1.048,2.078,2.376,4.016,3.944,5.759c4.674,5.195,11.067,8.275,18.06,8.677l0.108,0.006
			c0.18,0.009,0.361,0.017,0.542,0.022c0.192,0.006,0.384,0.009,0.577,0.011l0.209,0.003l0.209-0.003
			c0.193-0.001,0.385-0.005,0.579-0.011c0.18-0.006,0.361-0.013,0.537-0.022l0.167-0.008c6.936-0.399,13.331-3.479,18.005-8.674
			c1.57-1.745,2.897-3.683,3.944-5.759c0.197-0.389,0.38-0.785,0.564-1.2l0.783-2.002C142.236,93.637,141.666,92.337,140.517,91.887
			z"/>
	</g>
	<g>
		<g>
			<g>
				<path fill="#383838" d="M143.405,172.694c-0.037,0-0.073,0.001-0.11,0.002c-2.102,0.067-3.493,2.075-4.135,5.97
					c-0.542,3.285-0.52,6.894,0.064,11.034c0.147,1.056,0.596,4.268,2.716,5.048c0.205,0.067,0.4,0.1,0.58,0.1h0
					c0.306,0,0.567-0.097,0.754-0.28c0.239-0.233,0.338-0.586,0.287-1.02c-0.309-2.587-0.279-5.386,0.09-8.559
					c0.363-3.126,0.758-5.558,1.112-6.848c0.355-1.296,0.636-2.319,0.89-3.093l0.029-0.19l-0.014-0.152
					C145.556,173.465,144.688,172.694,143.405,172.694z"/>
				<path fill="#383838" d="M147.283,167.4c-0.606-0.568-1.491-0.817-2.417-0.675c-1.137,0.177-2.069,0.651-2.493,1.268
					c-0.252,0.366-0.313,0.76-0.177,1.14c0.356,0.999,1.711,2.195,3.021,2.668c0.248,0.089,0.497,0.135,0.742,0.135
					c1.165,0,2.014-0.975,2.114-2.426C148.13,168.679,147.85,167.93,147.283,167.4z"/>
			</g>
			<path fill="#383838" d="M143.34,174.185c-0.056-0.1-0.186-0.236-0.49-0.314c-0.078-0.02-0.167-0.037-0.271-0.051l-0.135-0.005
				c-0.371,0.03-0.763,0.045-1.164,0.045c-1.568,0-2.893-0.234-3.068-0.275l-0.043-0.012c-0.533-0.141-1.107-0.422-1.708-0.834
				c-0.157-0.785-0.439-1.565-0.839-2.32c-0.084-0.16-0.162-0.299-0.237-0.426c-0.14-0.235-0.468-0.787-1.015-1.338
				c-0.56-0.565-1.191-0.977-1.873-1.225c-0.893-0.325-1.715-0.396-2.435-0.211c-0.824,0.21-1.283,0.708-1.293,1.402
				c-0.009,0.578,0.363,1.38,1.17,2.523c0.624,0.884,1.404,1.706,2.318,2.443c0.209,0.339,0.344-0.416-1.276,4.244
				c-2.36,6.787-7.614,11.489-7.614,11.489c-1.777-6.42,0.514-11.121,1.522-13.816c0.246-0.657,0.423-1.132,0.47-1.425l0.002-0.019
				c0.105-1.339-0.678-2.164-2.273-2.386c-0.078-0.009-0.157-0.013-0.234-0.013c-1.487,0-2.744,1.562-3.736,4.643
				c-0.765,2.376-1.095,4.796-1.1,5.38c-0.476,5.982,0.347,10.449,2.258,12.256c0.637,0.602,1.382,0.907,2.218,0.907
				c0.206,0,0.419-0.019,0.62-0.054c0.189-0.025,0.393-0.082,0.618-0.173c2.194-0.978,6.051-4.919,9.173-10.551
				c0.508-0.832,0.979-1.666,1.397-2.479c1.127-2.189,1.806-4.019,2.124-5.726c0.394,0.121,0.785,0.216,1.166,0.285
				c0.424,0.076,0.824,0.115,1.189,0.115c0.508,0,0.959-0.074,1.342-0.221c0.132-0.051,0.315-0.1,0.507-0.15l0.063-0.017
				c0.545-0.143,1.107-0.291,1.243-0.662c0.065-0.032,0.207-0.095,0.504-0.201c0.547-0.197,0.822-0.297,0.919-0.518
				C143.401,174.396,143.395,174.286,143.34,174.185z"/>
		</g>
		<g>
			<path fill="#383838" d="M92.284,166.079c2.97-1.416,6.619-2.003,9.978-2.311c3.757-0.345,7.547-0.332,11.313-0.169
				c3.173,0.137,3.159-4.782,0-4.919c-7.858-0.339-16.534-0.301-23.774,3.152c-1.21,0.577-1.517,2.282-0.882,3.365
				C89.638,166.424,91.074,166.656,92.284,166.079L92.284,166.079z"/>
			<path fill="#383838" d="M101.011,160.2c0,0,0.754,18.72-4.093,26.959c-4.847,8.239-7.971-3.287-7.971-3.287
				s-0.787-2.154-2.656-1.508c-1.869,0.646-1.283,5.705,0,7.763c1.283,2.059,3.742,5.429,7.934,4.517s9.372-4.166,11.203-20.341
				c1.831-16.175,0.539-14.99,0.539-14.99L101.011,160.2z"/>
		</g>
		<g>
			<path fill="#383838" d="M113.083,172.694c-0.037,0-0.073,0.001-0.11,0.002c-2.102,0.067-3.493,2.075-4.135,5.97
				c-0.542,3.285-0.52,6.894,0.064,11.034c0.147,1.056,0.596,4.268,2.716,5.048c0.205,0.067,0.4,0.1,0.58,0.1c0,0,0,0,0,0
				c0.306,0,0.567-0.097,0.754-0.28c0.239-0.233,0.338-0.586,0.287-1.02c-0.309-2.587-0.279-5.386,0.09-8.559
				c0.363-3.126,0.758-5.558,1.112-6.848c0.355-1.296,0.636-2.319,0.89-3.093l0.029-0.19l-0.014-0.152
				C115.233,173.465,114.366,172.694,113.083,172.694z"/>
			<path fill="#383838" d="M116.961,167.4c-0.606-0.568-1.491-0.817-2.417-0.675c-1.137,0.177-2.069,0.651-2.493,1.267
				c-0.252,0.366-0.313,0.76-0.177,1.14c0.356,0.999,1.711,2.196,3.021,2.668c0.248,0.089,0.497,0.135,0.742,0.135
				c1.165,0,2.014-0.975,2.114-2.426C117.808,168.679,117.528,167.93,116.961,167.4z"/>
		</g>
	</g>
</g>
</svg>
