<?xml version="1.0" encoding="utf-8"?>
<!-- Generator: Adobe Illustrator 17.0.0, SVG Export Plug-In . SVG Version: 6.00 Build 0)  -->
<!DOCTYPE svg PUBLIC "-//W3C//DTD SVG 1.1//EN" "http://www.w3.org/Graphics/SVG/1.1/DTD/svg11.dtd">
<svg version="1.1" id="Layer_1" xmlns="http://www.w3.org/2000/svg" xmlns:xlink="http://www.w3.org/1999/xlink" x="0px" y="0px"
	 width="31.044px" height="31px" viewBox="0 0 31.044 31" enable-background="new 0 0 31.044 31" xml:space="preserve">
<g>
	<g>
		<path fill="#FFFFFF" d="M15.545,0C7.152,0,0.324,6.953,0.324,15.5S7.152,31,15.545,31s15.221-6.953,15.221-15.5
			C30.766,6.953,23.937,0,15.545,0z M2.231,19.174c-0.312-1.171-0.479-2.403-0.479-3.674s0.167-2.502,0.479-3.674
			C2.543,10.655,3,9.543,3.582,8.514C3,9.543,2.543,10.655,2.231,11.826S1.752,14.229,1.752,15.5
			C1.753,16.771,1.919,18.002,2.231,19.174c0.312,1.171,0.77,2.282,1.351,3.312C3.001,21.456,2.543,20.345,2.231,19.174z
			 M15.545,29.329c-7.488,0-13.579-6.203-13.579-13.828s6.091-13.83,13.579-13.83s13.58,6.203,13.58,13.829
			S23.033,29.329,15.545,29.329z M11.788,12.76c0.692,0,1.256-0.573,1.256-1.278s-0.564-1.278-1.256-1.278s-1.256,0.573-1.256,1.278
			C10.532,12.186,11.095,12.76,11.788,12.76z M19.302,12.76c0.692,0,1.256-0.573,1.256-1.278s-0.563-1.278-1.256-1.278
			c-0.692,0-1.255,0.573-1.255,1.278C18.047,12.186,18.61,12.76,19.302,12.76z M22.665,17.128l-0.062-0.025
			c-0.308-0.122-0.672,0.005-0.846,0.283l-0.014,0.032c-0.394,1.246-1.137,2.339-2.149,3.159c-1.026,0.832-2.259,1.323-3.562,1.42
			l-0.012,0.001c-0.076,0.005-0.151,0.01-0.227,0.013l-0.256,0.005l-0.239-0.005c-0.076-0.003-0.151-0.008-0.237-0.013
			c-1.305-0.097-2.538-0.588-3.564-1.421c-1.013-0.82-1.755-1.912-2.149-3.159l-0.015-0.032c-0.173-0.279-0.537-0.407-0.846-0.283
			l-0.062,0.025c-0.359,0.143-0.537,0.557-0.397,0.923l0.238,0.622c0.06,0.136,0.115,0.256,0.169,0.366
			c0.318,0.641,0.721,1.24,1.196,1.778c1.417,1.605,3.356,2.556,5.46,2.679l0.05,0.003c0.054,0.003,0.109,0.005,0.164,0.007
			c0.059,0.002,0.117,0.003,0.2,0.003l0.039,0.001l0.063-0.001c0.059,0,0.117-0.001,0.176-0.003
			c0.055-0.002,0.109-0.004,0.164-0.007l0.049-0.003c2.104-0.123,4.043-1.074,5.461-2.679c0.475-0.539,0.878-1.137,1.196-1.778
			c0.053-0.108,0.109-0.228,0.171-0.372l0.237-0.617C23.202,17.685,23.024,17.271,22.665,17.128z"/>
	</g>
</g>
<g id="L_2_">
</g>
</svg>

