<?xml version="1.0" encoding="utf-8"?>
<!-- Generator: Adobe Illustrator 17.0.0, SVG Export Plug-In . SVG Version: 6.00 Build 0)  -->
<!DOCTYPE svg PUBLIC "-//W3C//DTD SVG 1.1//EN" "http://www.w3.org/Graphics/SVG/1.1/DTD/svg11.dtd">
<svg version="1.1" id="Layer_1" xmlns="http://www.w3.org/2000/svg" xmlns:xlink="http://www.w3.org/1999/xlink" x="0px" y="0px"
	 width="31.044px" height="31px" viewBox="0 0 31.044 31" enable-background="new 0 0 31.044 31" xml:space="preserve">
<g>
	<g>
		<path fill="#F74854" d="M-76.818,27.47c-8.393,0-15.221,6.953-15.221,15.5c0,8.547,6.828,15.5,15.221,15.5
			c8.393,0,15.221-6.953,15.221-15.5C-61.597,34.423-68.425,27.47-76.818,27.47z M-90.132,46.644
			c-0.312-1.171-0.479-2.403-0.479-3.674c0-1.271,0.167-2.502,0.479-3.674c0.312-1.171,0.769-2.283,1.351-3.312
			c-0.582,1.029-1.039,2.141-1.351,3.312c-0.312,1.171-0.479,2.403-0.479,3.674C-90.61,44.241-90.444,45.472-90.132,46.644
			c0.312,1.171,0.77,2.282,1.351,3.312C-89.362,48.926-89.82,47.815-90.132,46.644z M-76.818,56.799
			c-7.488,0-13.579-6.203-13.579-13.828s6.092-13.829,13.579-13.829c7.488,0,13.58,6.203,13.58,13.829S-69.33,56.799-76.818,56.799z
			 M-80.575,40.23c0.692,0,1.256-0.573,1.256-1.278c0-0.705-0.564-1.278-1.256-1.278c-0.692,0-1.256,0.573-1.256,1.278
			C-81.831,39.656-81.268,40.23-80.575,40.23z M-73.061,40.23c0.692,0,1.256-0.573,1.256-1.278c0-0.705-0.563-1.278-1.256-1.278
			c-0.692,0-1.255,0.573-1.255,1.278C-74.316,39.656-73.753,40.23-73.061,40.23z M-69.698,44.598l-0.062-0.025
			c-0.308-0.122-0.672,0.005-0.846,0.283l-0.014,0.032c-0.394,1.246-1.137,2.339-2.149,3.159c-1.026,0.832-2.259,1.323-3.562,1.42
			l-0.012,0.001c-0.076,0.005-0.151,0.01-0.227,0.013l-0.256,0.005l-0.239-0.005c-0.076-0.003-0.151-0.008-0.237-0.013
			c-1.305-0.097-2.538-0.588-3.564-1.421c-1.013-0.82-1.755-1.912-2.149-3.159l-0.015-0.032c-0.173-0.279-0.537-0.407-0.846-0.283
			l-0.062,0.025c-0.359,0.143-0.537,0.557-0.397,0.923l0.238,0.622c0.06,0.136,0.115,0.256,0.169,0.366
			c0.318,0.641,0.721,1.24,1.196,1.778c1.417,1.605,3.356,2.556,5.46,2.679l0.05,0.003c0.054,0.003,0.109,0.005,0.164,0.007
			c0.059,0.002,0.117,0.003,0.2,0.003l0.039,0.001l0.063-0.001c0.059,0,0.117-0.001,0.176-0.003
			c0.055-0.002,0.109-0.004,0.164-0.007l0.049-0.003c2.104-0.123,4.043-1.074,5.461-2.679c0.475-0.539,0.878-1.137,1.196-1.778
			c0.053-0.108,0.109-0.228,0.171-0.372l0.237-0.617C-69.161,45.155-69.339,44.741-69.698,44.598z"/>
	</g>
</g>
<path fill="#FFFFFF" d="M-88.083,92.664h-20.236c-2.04,0-3.701,1.674-3.701,3.732v14.598c0,2.058,1.66,3.732,3.701,3.732h20.236
	c2.041,0,3.7-1.674,3.7-3.732V96.396C-84.383,94.338-86.043,92.664-88.083,92.664z M-88.667,94.317l-9.535,9.592l-0.092-0.081
	l-9.442-9.511H-88.667z M-86.022,110.994c0,1.146-0.925,2.079-2.061,2.079h-20.236c-1.137,0-2.062-0.933-2.062-2.079V96.396
	c0-0.576,0.233-1.114,0.655-1.513l0.092-0.087l0.095,0.083l11.337,11.016l11.433-11.099l0.092,0.087
	c0.422,0.399,0.655,0.937,0.655,1.513V110.994z"/>
<g>
	<g>
		<path fill-rule="evenodd" clip-rule="evenodd" fill="#F74854" d="M15.544,0c-8.547,0-15.5,6.953-15.5,15.5
			c0,8.547,6.953,15.5,15.5,15.5c8.547,0,15.5-6.953,15.5-15.5C31.044,6.953,24.091,0,15.544,0z M24.473,4.666
			c-0.694-0.573-1.444-1.081-2.24-1.514C23.03,3.585,23.779,4.093,24.473,4.666z M29.373,15.5c0,7.625-6.203,13.828-13.829,13.828
			c-7.625,0-13.828-6.203-13.828-13.828S7.919,1.671,15.544,1.671C23.169,1.671,29.373,7.875,29.373,15.5z M15.544,0.217
			L15.544,0.217c-1.58,0-3.105,0.241-4.54,0.688C12.439,0.458,13.964,0.217,15.544,0.217z M1.499,15.5
			c0-6.777,4.824-12.448,11.218-13.76C6.323,3.052,1.5,8.724,1.499,15.5c0,5.082,2.713,9.543,6.768,12.009
			C4.213,25.043,1.499,20.582,1.499,15.5z M15.544,30.783c-1.58,0-3.105-0.241-4.54-0.688
			C12.439,30.542,13.964,30.783,15.544,30.783L15.544,30.783z M23.698,28.422c4.281-2.711,7.129-7.49,7.129-12.922
			c0-5.432-2.848-10.211-7.129-12.922c4.281,2.711,7.129,7.49,7.129,12.922C30.828,20.932,27.979,25.71,23.698,28.422z
			 M11.718,12.76c0.705,0,1.279-0.573,1.279-1.278c0-0.705-0.574-1.278-1.279-1.278c-0.705,0-1.279,0.573-1.279,1.278
			C10.44,12.186,11.013,12.76,11.718,12.76z M19.37,12.76c0.705,0,1.279-0.573,1.279-1.278c0-0.705-0.574-1.278-1.279-1.278
			c-0.704,0-1.278,0.573-1.278,1.278C18.092,12.186,18.666,12.76,19.37,12.76z M20.731,20.189H10.358
			c-0.122,0-0.221,0.099-0.221,0.221v1c0,0.122,0.099,0.221,0.221,0.221h10.373c0.122,0,0.221-0.099,0.221-0.221v-1
			C20.952,20.288,20.853,20.189,20.731,20.189z"/>
	</g>
</g>
<g id="L_2_">
</g>
</svg>
